<?xml version="1.0" standalone="no"?>
<!DOCTYPE svg PUBLIC "-//W3C//DTD SVG 20010904//EN"
 "http://www.w3.org/TR/2001/REC-SVG-20010904/DTD/svg10.dtd">
<svg version="1.0" xmlns="http://www.w3.org/2000/svg"
 width="700.000000pt" height="700.000000pt" viewBox="0 0 700.000000 700.000000"
 preserveAspectRatio="xMidYMid meet">
<metadata>
Created by potrace 1.14, written by Peter Selinger 2001-2017
</metadata>
<g transform="translate(0.000000,700.000000) scale(0.100000,-0.100000)"
fill="#000000" stroke="none">
<path d="M474 6948 c-39 -71 -72 -149 -95 -228 -37 -124 -108 -416 -139 -570
-17 -85 -44 -209 -59 -275 -16 -66 -39 -174 -51 -240 -40 -219 -61 -319 -96
-459 -29 -115 -34 -154 -32 -223 l3 -84 40 52 c22 28 45 59 50 68 6 9 37 55
70 104 l60 87 7 -202 c9 -254 31 -463 69 -644 43 -209 111 -430 156 -506 11
-19 23 -51 27 -71 7 -37 20 -48 29 -24 3 7 -4 46 -14 87 -10 41 -24 116 -30
165 -11 99 -12 406 -1 500 l7 60 29 -125 c16 -69 37 -152 48 -185 10 -33 26
-84 34 -113 27 -100 207 -464 256 -518 11 -13 19 -38 20 -68 2 -32 6 -45 15
-42 6 3 15 -5 19 -17 3 -12 17 -46 31 -76 13 -30 21 -61 18 -70 -3 -8 -3 -12
1 -9 6 7 83 -139 146 -277 15 -33 46 -80 68 -104 22 -24 40 -48 40 -53 0 -5 4
-6 10 -3 6 4 2 21 -10 45 -39 76 -96 422 -88 532 l3 43 65 -94 c57 -81 249
-330 399 -516 63 -78 114 -159 147 -232 14 -32 37 -69 50 -83 30 -33 54 -161
61 -337 5 -103 9 -133 19 -133 8 0 14 9 14 19 0 11 4 22 9 25 4 3 11 24 15 46
4 23 13 51 21 64 26 39 56 138 75 241 10 55 19 93 19 84 1 -9 23 -63 50 -120
26 -57 63 -144 81 -194 17 -49 36 -99 41 -110 4 -11 13 -40 19 -65 38 -153 59
-192 67 -124 13 125 38 262 45 249 5 -8 9 -18 10 -22 1 -5 10 -17 20 -27 10
-11 18 -24 18 -29 0 -6 10 -24 23 -41 61 -83 77 -131 88 -253 6 -64 7 -128 4
-142 -3 -13 -8 -79 -10 -145 -2 -67 -9 -134 -14 -149 -6 -16 -7 -26 -3 -23 4
2 6 -12 4 -32 -4 -33 -6 -34 -18 -17 -13 18 -14 18 -14 -3 0 -12 4 -22 9 -22
5 0 4 -17 -1 -40 -6 -22 -14 -38 -18 -35 -4 3 -7 -3 -6 -13 0 -10 -6 -16 -16
-16 -10 1 -15 -3 -12 -8 8 -12 -27 -39 -44 -33 -7 3 -10 0 -7 -5 3 -6 -3 -10
-15 -10 -12 0 -18 -4 -15 -10 3 -5 2 -10 -4 -10 -5 0 -33 -16 -62 -35 -35 -23
-60 -33 -74 -29 -15 4 -16 3 -6 -4 11 -8 9 -11 -8 -17 -11 -3 -25 -4 -31 0 -6
4 -7 -1 -3 -11 5 -14 3 -16 -12 -10 -11 4 -16 4 -12 0 4 -4 -21 -22 -56 -40
-49 -25 -65 -30 -76 -21 -12 10 -14 9 -8 -5 5 -13 1 -18 -12 -18 -20 0 -65 47
-49 52 7 3 5 15 -6 35 -9 18 -16 41 -16 53 0 25 -39 27 -79 4 -22 -13 -26 -21
-23 -52 3 -38 -14 -83 -34 -89 -6 -2 -26 10 -43 26 -37 35 -37 52 5 178 16 49
23 91 21 129 -2 54 -4 59 -49 97 -25 22 -56 42 -67 44 -11 1 -30 12 -41 23
-11 11 -29 20 -39 20 -12 0 -25 11 -33 27 -8 17 -23 29 -38 31 -14 2 -29 7
-33 12 -14 12 -77 -12 -89 -34 -6 -12 -17 -25 -24 -29 -8 -4 -14 -14 -14 -22
0 -7 -13 -25 -30 -38 -16 -14 -30 -35 -30 -46 0 -12 -4 -21 -10 -21 -5 0 -10
-7 -10 -15 0 -12 -17 -15 -82 -17 -46 0 -91 -1 -101 0 -20 2 -57 -32 -57 -53
0 -8 -9 -19 -20 -25 -22 -12 -60 -5 -60 11 0 6 -11 25 -24 42 -22 29 -38 66
-41 92 -1 6 7 33 18 60 15 41 18 67 13 150 -6 125 -6 125 -24 125 -12 0 -13
11 -9 53 4 41 1 58 -15 80 -14 19 -16 27 -6 27 7 0 2 6 -12 13 -16 8 -24 20
-23 33 12 93 10 134 -6 153 -9 11 -24 21 -31 23 -23 5 -56 42 -66 73 -8 30 -8
30 -12 -10 -4 -47 -18 -67 -32 -45 -6 8 -10 10 -10 3 0 -6 -9 -9 -20 -6 -14 4
-20 14 -20 33 0 27 -2 28 -62 32 -42 3 -68 0 -79 -9 -22 -18 -37 -16 -51 7 -7
11 -21 20 -30 20 -11 0 -18 8 -18 18 0 17 -12 20 -117 25 -97 5 -121 4 -141
-9 -13 -9 -21 -18 -18 -21 3 -4 -4 -11 -17 -17 l-22 -12 -2 -459 -2 -460 32
-20 c35 -22 61 -75 39 -82 -6 -3 -12 -13 -12 -23 0 -9 -7 -36 -15 -59 -13 -39
-13 -41 8 -53 12 -7 40 -11 63 -10 24 1 46 -3 52 -10 5 -7 20 -47 32 -88 12
-41 26 -78 32 -81 16 -10 15 -118 -2 -129 -23 -15 -26 -13 -40 30 -11 33 -23
46 -66 69 l-53 29 -3 -42 c-2 -33 -7 -41 -23 -41 -37 0 -45 -14 -45 -75 0 -60
13 -80 48 -74 6 1 17 2 22 3 6 0 10 9 10 20 0 21 45 55 60 46 6 -3 7 1 4 9 -3
9 -1 16 5 16 6 0 11 -7 11 -15 0 -8 5 -14 12 -12 7 1 16 -14 21 -33 10 -39 70
-90 106 -90 14 0 21 -6 21 -18 0 -10 5 -23 12 -30 9 -9 9 -12 0 -12 -7 0 -12
-5 -12 -11 0 -6 7 -9 15 -6 8 4 17 2 20 -3 6 -10 -12 -14 -53 -10 -12 1 -25
-5 -28 -14 -3 -9 -12 -12 -21 -9 -10 4 -14 2 -10 -4 6 -10 -23 -21 -171 -64
l-72 -21 0 -174 0 -174 1674 0 1674 0 20 38 c11 20 28 54 37 75 10 20 21 37
25 37 5 0 24 14 42 31 38 35 115 89 127 89 5 0 14 7 22 16 16 20 83 54 105 54
25 0 64 -47 64 -78 0 -56 -86 -168 -171 -222 -27 -18 -49 -34 -49 -36 0 -2
772 -4 1715 -4 l1715 0 0 116 c0 127 3 121 -76 174 -13 8 -64 43 -114 78 -126
87 -181 109 -350 143 -88 18 -210 54 -210 61 0 4 5 8 11 8 5 0 7 4 4 10 -3 5
-1 10 5 10 6 0 8 5 4 11 -8 13 79 7 211 -16 182 -31 230 -46 222 -69 -3 -8 4
-11 24 -8 31 5 62 -12 189 -97 l75 -50 3 455 2 456 -22 31 c-12 18 -26 34 -30
35 -12 5 -10 36 4 50 7 7 20 12 30 12 16 0 18 11 18 114 l0 114 -31 -15 c-37
-18 -79 -5 -79 26 0 26 19 39 68 47 l42 7 0 731 0 731 -34 27 c-19 15 -40 44
-47 63 -7 19 -16 35 -19 35 -3 0 -22 -22 -43 -50 -21 -27 -48 -52 -62 -56 -34
-9 -90 3 -106 22 -11 13 -25 15 -79 9 -36 -4 -73 -14 -82 -22 -10 -9 -36 -15
-65 -15 -95 1 -121 -40 -85 -136 20 -50 20 -53 2 -62 -29 -15 -69 -8 -92 17
-22 24 -52 30 -63 13 -11 -18 4 -45 33 -58 16 -6 35 -27 43 -45 15 -35 39 -45
60 -25 8 7 28 19 44 27 17 7 37 17 45 21 35 17 98 22 107 7 10 -17 41 -29 48
-18 3 5 -2 11 -10 15 -20 7 -19 23 3 50 14 18 28 22 82 23 36 1 75 0 86 -3 26
-5 38 -43 24 -78 -8 -23 -5 -28 34 -55 46 -32 56 -47 56 -86 0 -26 -63 -85
-91 -85 -18 0 -48 31 -75 78 -10 17 -21 32 -24 32 -3 0 -18 11 -33 25 l-27 26
0 -31 c0 -19 -11 -45 -27 -66 -32 -38 -59 -43 -116 -19 -50 21 -67 19 -67 -7
0 -13 18 -38 45 -64 l45 -41 -6 -61 c-7 -68 -1 -74 50 -51 36 17 54 -2 58 -59
l3 -47 40 1 c22 0 59 4 81 8 39 8 42 7 48 -18 9 -36 -8 -62 -48 -76 -44 -14
-50 -32 -41 -131 7 -76 6 -79 -14 -79 -12 0 -21 5 -21 12 0 6 -2 9 -5 6 -3 -3
-24 12 -46 33 -22 22 -46 39 -53 39 -7 0 -30 11 -50 25 -36 25 -86 26 -86 3 0
-5 -4 -6 -10 -3 -5 3 -15 -3 -22 -15 -7 -11 -17 -20 -23 -20 -6 0 -16 -17 -22
-39 -29 -90 -75 -130 -141 -119 -19 3 -19 4 -3 58 13 43 22 56 39 58 50 7 107
140 67 156 -23 8 -18 33 8 40 12 3 48 6 80 6 31 0 57 5 57 10 0 6 7 10 15 10
8 0 15 5 15 10 0 6 -10 10 -22 10 -29 1 -73 39 -81 71 -5 18 1 36 18 62 31 45
31 55 -1 103 -22 32 -25 43 -16 70 9 32 -4 94 -26 116 -17 17 -65 -1 -105 -37
-34 -31 -37 -39 -38 -87 -2 -59 -19 -102 -49 -118 -27 -15 -25 -29 11 -83 25
-39 30 -54 25 -82 -7 -35 -46 -75 -73 -75 -9 0 -44 28 -80 63 -51 49 -65 70
-68 97 -2 19 -6 42 -10 51 -11 28 44 75 97 83 95 14 86 59 -18 91 -68 21 -69
22 -74 61 -8 61 -20 75 -68 76 -23 0 -44 3 -47 7 -2 4 -6 27 -9 51 -3 24 -14
52 -24 62 -17 17 -24 18 -64 8 -48 -12 -58 -26 -58 -81 0 -14 -6 -33 -13 -44
-13 -17 -16 -17 -53 9 l-39 26 -20 -20 c-16 -17 -20 -32 -18 -83 2 -61 1 -62
-46 -112 -26 -28 -50 -57 -52 -64 -4 -12 -13 -10 -50 6 -24 12 -58 27 -76 33
-59 22 -59 33 -1 92 50 52 105 119 138 168 8 13 27 38 43 55 28 34 33 45 19
45 -4 0 -16 -13 -25 -30 -10 -16 -40 -53 -67 -82 -38 -40 -52 -50 -59 -40 -6
11 -10 9 -14 -7 -3 -14 -1 -19 6 -15 12 7 -21 -31 -94 -108 -39 -41 -49 -46
-49 -23 0 8 -8 15 -17 15 -14 0 -15 2 -4 13 11 10 14 10 18 0 3 -7 11 -13 19
-13 9 0 12 5 8 11 -17 29 -4 139 17 139 5 0 9 13 9 29 0 16 6 31 14 34 30 12
47 65 44 140 l-3 72 -30 0 c-21 0 -38 9 -58 33 -31 35 -47 41 -47 17 0 -11
-11 -15 -41 -15 -29 0 -40 4 -36 13 6 16 -97 7 -130 -11 -12 -7 -47 -12 -77
-12 -46 0 -57 -4 -66 -21 -7 -12 -18 -18 -26 -15 -8 3 -14 2 -14 -3 0 -5 -21
-12 -46 -16 -26 -3 -53 -15 -62 -26 -26 -30 -84 -25 -125 11 -41 35 -101 53
-91 26 3 -9 11 -16 18 -16 6 0 25 -10 41 -21 17 -12 21 -18 10 -14 -39 14 -61
17 -47 7 9 -6 -7 -9 -51 -8 -36 0 -63 -2 -60 -6 7 -12 -70 -9 -87 3 -12 8 -9
9 10 4 19 -5 22 -4 10 4 -8 6 -24 11 -35 12 -17 1 -17 2 -2 6 9 2 15 8 12 13
-3 5 15 12 40 16 25 3 48 10 51 15 9 15 -110 10 -156 -6 -52 -18 -71 -19 -67
-3 1 8 -9 12 -28 11 -25 -2 -27 -1 -10 6 11 5 15 10 9 10 -6 1 -16 25 -22 54
-14 71 -30 109 -42 102 -13 -8 -13 145 0 165 5 8 10 12 10 8 0 -5 9 1 20 12
24 24 26 50 4 50 -12 0 -15 10 -14 43 3 67 1 87 -9 87 -5 0 -12 -12 -14 -27
-3 -21 -4 -17 -6 13 0 22 -6 45 -11 50 -6 6 -13 66 -15 133 l-5 122 35 20 c39
24 45 39 14 39 -11 0 -32 14 -46 30 -21 26 -32 30 -74 30 -27 0 -49 -4 -49 -9
0 -5 -49 -11 -109 -13 -120 -3 -140 -12 -166 -75 -7 -17 -26 -38 -42 -47 -32
-16 -56 -57 -47 -80 3 -9 -3 -20 -15 -28 -12 -7 -21 -21 -21 -30 0 -10 -5 -18
-11 -18 -5 0 -8 -4 -5 -8 3 -5 -29 -42 -69 -82 -41 -41 -75 -81 -75 -90 -1
-18 -64 -60 -91 -60 -11 0 -19 -6 -17 -13 3 -12 -34 -67 -46 -67 -3 0 -6 7 -6
15 0 19 -19 19 -26 0 -7 -17 -51 -20 -56 -4 -2 7 -17 3 -41 -10 -21 -12 -55
-21 -76 -21 -22 0 -41 -5 -43 -12 -3 -7 -31 14 -66 50 -37 37 -69 62 -80 61
-9 -2 -36 16 -60 39 -38 37 -40 42 -20 42 30 0 13 14 -37 31 -47 15 -207 13
-217 -3 -4 -7 -24 -8 -60 -3 -29 5 -77 7 -107 6 -60 -2 -122 14 -118 32 1 6
-6 13 -15 15 -11 2 -18 -2 -18 -12 0 -9 -5 -16 -11 -16 -5 0 -7 5 -4 10 3 6
-6 15 -20 20 -14 5 -23 14 -20 20 3 5 -1 10 -9 10 -9 0 -16 5 -16 10 0 6 -17
10 -38 10 -26 0 -45 7 -57 20 -10 11 -22 17 -26 14 -5 -3 -9 1 -9 8 0 10 -2
10 -9 -1 -7 -10 -18 -12 -47 -5 -22 4 -46 8 -54 9 -26 1 -80 35 -80 50 0 10
-11 15 -34 15 -19 0 -37 6 -39 13 -4 9 -8 8 -16 -3 -8 -12 -10 -9 -7 13 1 15
6 30 9 34 4 3 7 26 7 50 0 50 12 102 53 233 41 132 71 215 99 280 l25 55 12
-70 c16 -95 137 -578 156 -627 4 -10 14 -18 22 -18 12 0 14 10 8 53 -4 28 -11
68 -17 87 -5 19 -12 140 -15 268 -4 181 -2 268 12 395 10 89 21 166 26 171 5
6 9 -1 9 -18 0 -73 118 -454 166 -535 25 -42 47 -50 40 -13 -3 15 -15 103 -26
195 -18 142 -21 211 -18 451 2 189 7 288 14 297 6 8 22 46 34 84 29 88 145
344 248 545 175 341 196 380 204 380 4 0 8 5 8 11 0 16 41 81 47 75 3 -3 -4
-18 -16 -35 -13 -18 -17 -32 -11 -36 5 -3 10 1 10 9 0 9 4 16 9 16 5 0 13 10
17 23 l8 22 7 -25 c7 -23 7 -23 8 7 1 17 5 35 11 38 6 3 8 -13 5 -42 -3 -26
-12 -127 -21 -223 -14 -163 -23 -245 -40 -363 l-7 -48 -86 -42 c-101 -49 -96
-46 -89 -53 3 -3 14 0 25 5 19 12 136 50 140 47 3 -3 -10 -113 -23 -196 l-7
-45 21 22 c22 22 132 232 132 250 0 7 54 11 163 10 132 -1 164 -4 173 -16 10
-13 14 -13 30 -1 11 8 16 11 12 6 -4 -5 0 -15 8 -23 8 -8 12 -18 9 -23 -2 -4
16 -6 40 -4 50 3 51 2 63 -52 l9 -40 -58 1 c-32 1 -56 -2 -53 -7 3 -4 13 -8
23 -8 9 0 26 -7 37 -15 18 -14 16 -15 -21 -9 -30 4 -36 3 -25 -5 8 -6 11 -11
5 -12 -25 -3 -32 -6 -68 -21 -20 -10 -45 -31 -55 -48 -15 -26 -35 -36 -64 -31
-30 4 -221 -23 -298 -42 -98 -25 -216 -75 -260 -110 -14 -11 -18 -18 -10 -15
8 4 24 10 35 14 11 4 -18 -32 -64 -81 -100 -106 -146 -174 -108 -159 9 3 16
-12 24 -48 12 -59 72 -190 104 -228 17 -20 20 -21 14 -5 -25 70 -46 169 -48
227 l-2 67 60 62 c60 62 169 149 186 149 5 0 7 -11 3 -25 -7 -30 -2 -31 34 -5
52 37 78 36 118 -4 33 -33 36 -41 31 -76 -3 -21 -18 -55 -33 -75 -27 -35 -30
-37 -72 -31 -48 6 -81 36 -82 73 0 12 -4 25 -10 28 -15 10 -12 -173 4 -252 8
-37 25 -93 37 -123 56 -136 197 -305 279 -333 90 -30 196 -50 231 -43 41 7
109 66 127 109 7 15 17 25 22 22 5 -3 7 0 4 8 -3 8 1 21 9 29 8 8 16 22 18 32
2 9 8 17 12 16 12 -1 37 27 37 41 0 7 -7 4 -15 -7 -15 -18 -15 -18 -13 6 2 17
11 26 28 30 19 4 35 24 65 83 43 83 61 103 82 85 10 -8 13 -4 13 17 0 34 28
83 52 91 10 3 18 15 18 27 0 13 3 17 8 11 12 -19 61 -13 80 10 20 24 48 44 75
52 9 4 17 10 17 15 0 4 11 -2 25 -15 29 -27 32 -38 8 -29 -11 4 -4 -9 17 -33
19 -22 37 -39 39 -38 2 2 -2 11 -9 19 -10 11 -10 19 -2 27 8 8 12 0 17 -28 3
-22 10 -61 16 -89 25 -117 31 -312 16 -483 -7 -79 -6 -93 7 -98 20 -8 40 12
66 69 13 27 27 44 33 40 6 -4 7 -1 2 7 -5 8 -2 17 6 24 8 6 20 24 27 40 10 22
16 26 21 17 7 -10 10 -10 16 -1 4 7 2 16 -4 20 -9 5 9 48 61 147 41 77 80 154
87 171 7 18 17 29 21 27 5 -3 12 0 16 6 4 8 3 9 -4 5 -17 -10 -14 15 3 38 14
19 15 18 16 -15 l1 -34 7 30 c6 24 10 8 24 -75 10 -67 13 -108 7 -114 -6 -6
-10 -29 -10 -52 0 -24 -5 -55 -12 -71 -6 -15 -12 -31 -12 -35 -1 -4 -8 -16
-16 -27 -13 -19 -16 -19 -31 -5 -16 14 -18 12 -24 -26 -4 -22 -13 -47 -21 -54
-8 -8 -14 -24 -14 -35 0 -10 -18 -37 -40 -59 -22 -21 -40 -44 -40 -50 0 -6 11
-23 24 -38 51 -56 57 -65 50 -75 -3 -6 8 -4 24 5 17 9 47 18 66 20 32 5 74 22
86 37 10 12 49 29 68 29 11 0 31 9 45 20 32 25 37 25 38 -2 l0 -23 16 23 c9
12 26 22 39 22 13 0 24 5 24 10 0 6 18 10 40 10 22 0 40 5 40 10 0 6 8 19 18
29 9 11 23 27 30 36 11 12 25 15 62 11 33 -4 50 -2 54 7 3 6 3 1 0 -12 -5 -21
-4 -23 12 -16 11 4 28 8 39 8 11 1 23 5 26 10 6 8 71 -19 125 -53 19 -12 24
-11 39 3 9 9 22 17 29 17 23 0 73 68 120 164 83 167 121 407 91 565 -9 46 -14
85 -11 88 9 9 113 -57 150 -94 29 -30 36 -45 36 -78 0 -92 -51 -308 -91 -387
-26 -52 -24 -70 4 -28 54 81 137 317 137 389 0 14 -16 52 -36 85 l-37 59 16
96 c9 53 22 135 29 184 9 65 16 87 27 87 12 0 12 3 3 12 -7 7 -12 37 -11 72
l1 61 20 -65 c41 -140 48 -169 69 -290 33 -198 40 -314 24 -390 -19 -89 -25
-160 -13 -157 6 1 16 -22 24 -52 28 -106 137 -326 180 -362 17 -14 17 -11 -1
71 -15 68 -19 322 -7 415 8 56 23 62 34 13 21 -92 37 -186 54 -311 17 -130 26
-168 38 -156 11 10 55 249 70 374 9 72 16 167 17 210 0 66 2 77 12 62 7 -11
36 -56 66 -100 29 -45 68 -111 86 -147 35 -69 64 -112 65 -95 0 6 -12 55 -26
110 -58 232 -63 281 -53 510 6 116 7 247 4 293 -5 63 -4 82 6 82 16 0 69 -50
69 -66 0 -13 159 -174 172 -174 10 0 -8 36 -22 45 -17 10 -12 38 5 31 13 -4
13 -2 5 14 -5 10 -15 22 -20 25 -20 12 -63 90 -71 125 -4 19 -21 100 -39 180
-36 165 -65 323 -110 595 -17 105 -35 203 -41 219 -5 16 -7 31 -4 34 3 3 44
-31 92 -75 82 -75 190 -151 308 -218 l50 -29 -42 50 c-22 27 -65 85 -95 129
-29 44 -72 105 -95 135 -22 31 -78 119 -124 195 -45 77 -93 154 -106 171 -13
17 -23 36 -23 42 0 9 -705 12 -2868 12 l-2869 0 -29 -52z m2865 -173 c3 -5 6
-26 6 -45 0 -31 -3 -35 -25 -34 -14 1 -31 -6 -38 -15 -11 -14 -12 -11 -6 19 3
19 10 40 15 46 5 6 6 14 2 18 -4 4 1 4 11 0 13 -5 17 -4 12 4 -3 6 -3 30 1 54
l8 43 3 -40 c2 -22 7 -44 11 -50z m-41 -154 c-1 -33 -6 -57 -10 -55 -4 3 -8
13 -8 22 0 15 -2 15 -10 2 -11 -17 -13 -10 -4 14 3 9 10 14 14 11 5 -3 6 4 3
15 -5 20 2 50 12 50 3 0 4 -27 3 -59z m72 33 c0 -14 4 -33 9 -42 12 -24 24
-99 14 -89 -4 5 -13 27 -19 50 l-10 42 0 -62 c1 -35 4 -55 8 -45 9 22 10 3 2
-37 -5 -21 -12 -31 -25 -31 -15 0 -19 7 -19 34 0 19 5 36 12 38 7 3 6 7 -5 11
-14 5 -17 0 -17 -38 0 -42 -2 -45 -26 -45 -21 0 -25 3 -19 18 15 36 17 52 6
52 -6 0 -11 -9 -11 -20 0 -11 -4 -20 -10 -20 -12 0 -13 33 -1 46 5 5 11 18 14
29 4 19 5 19 6 -1 0 -12 8 -24 16 -28 13 -4 15 8 15 79 l0 85 30 0 c26 0 30
-4 30 -26z m-114 -42 c-14 -15 -15 -13 -3 17 8 23 13 28 15 16 2 -10 -3 -25
-12 -33z m4 -83 c0 -5 -4 -9 -10 -9 -5 0 -10 7 -10 16 0 8 5 12 10 9 6 -3 10
-10 10 -16z m-15 -79 c3 -5 -1 -10 -10 -10 -9 0 -13 5 -10 10 3 6 8 10 10 10
2 0 7 -4 10 -10z m1869 -161 c58 -176 61 -197 42 -244 -12 -29 -13 -41 -5 -52
7 -7 9 -16 6 -19 -3 -3 -12 7 -20 22 -14 27 -15 27 -21 6 -9 -28 -65 -84 -77
-76 -12 7 -11 -3 2 -28 7 -13 7 -18 1 -14 -6 3 -13 -3 -17 -14 -3 -11 -11 -20
-18 -20 -6 0 -21 -10 -34 -22 -14 -13 -23 -16 -23 -9 0 7 16 92 36 189 46 230
64 337 64 392 0 65 13 42 64 -111z m-1697 119 c-3 -8 -6 -5 -6 6 -1 11 2 17 5
13 3 -3 4 -12 1 -19z m-2957 -31 c0 -18 -7 -60 -16 -92 -19 -69 -33 -127 -41
-170 -3 -16 -9 -32 -13 -35 -4 -3 -12 -14 -18 -25 -10 -18 -11 -16 -11 15 1
79 50 292 68 298 6 2 11 12 11 23 0 10 5 19 10 19 6 0 10 -15 10 -33z m2907 1
c-3 -7 -5 -2 -5 12 0 14 2 19 5 13 2 -7 2 -19 0 -25z m-167 -19 c0 -31 -20
-37 -28 -8 -3 11 -2 11 7 -1 9 -12 11 -10 11 13 0 15 2 27 5 27 3 0 5 -14 5
-31z m197 9 c-3 -8 -6 -5 -6 6 -1 11 2 17 5 13 3 -3 4 -12 1 -19z m-549 -23
c-3 -3 -9 2 -12 12 -6 14 -5 15 5 6 7 -7 10 -15 7 -18z m-2324 -120 c-9 -33
-19 -72 -21 -88 -3 -15 -9 -30 -14 -33 -11 -7 -12 81 -1 104 5 9 14 27 20 39
7 13 12 31 12 41 0 10 3 22 8 26 14 15 13 -31 -4 -89z m2281 85 c3 -5 1 -10
-4 -10 -6 0 -11 5 -11 10 0 6 2 10 4 10 3 0 8 -4 11 -10z m395 -11 c0 -5 -4
-7 -10 -4 -5 3 -10 1 -10 -6 0 -7 -3 -10 -6 -6 -8 7 4 27 17 27 5 0 9 -5 9
-11z m-40 -31 c-1 -16 -28 -53 -35 -47 -6 7 18 59 28 59 4 0 7 -6 7 -12z m120
-28 c0 -22 5 -40 10 -40 6 0 10 -18 10 -40 0 -22 -4 -40 -10 -40 -6 0 -10 -47
-10 -120 0 -105 -2 -120 -17 -120 -15 0 -15 -1 0 -18 10 -10 17 -24 17 -30 0
-16 77 -16 84 1 3 8 11 5 24 -10 11 -13 27 -23 36 -23 9 0 16 -4 16 -10 0 -10
-38 -13 -117 -10 l-43 2 0 -41 0 -41 -47 -1 c-27 -1 -54 0 -62 1 -8 1 -50 -5
-95 -14 -111 -20 -166 -26 -166 -16 0 16 44 125 52 128 4 2 8 10 8 18 0 9 5
25 12 37 7 12 12 27 13 32 3 33 28 97 41 102 7 3 14 17 14 32 1 34 63 194 73
185 3 -4 14 -1 23 7 13 11 18 11 21 2 3 -7 9 -13 15 -13 6 0 6 6 -2 15 -7 8
-9 23 -4 37 7 22 8 21 20 -12 l12 -35 1 38 c1 36 2 37 36 37 34 0 35 -1 35
-40z m187 -52 c-3 -7 -5 -2 -5 12 0 14 2 19 5 13 2 -7 2 -19 0 -25z m-67 -188
c0 -22 -4 -40 -10 -40 -5 0 -10 18 -10 40 0 22 5 40 10 40 6 0 10 -18 10 -40z
m137 -222 c-3 -8 -6 -5 -6 6 -1 11 2 17 5 13 3 -3 4 -12 1 -19z m1918 -77 c33
-102 53 -191 41 -191 -13 0 -104 29 -126 40 -12 6 -14 25 -11 96 2 49 5 91 6
94 2 3 19 5 39 6 34 0 36 -2 51 -45z m-2075 19 c0 -5 -10 -10 -22 -9 -22 0
-22 1 -3 9 11 5 21 9 23 9 1 1 2 -3 2 -9z m1870 -65 c0 -5 -5 -3 -10 5 -5 8
-10 20 -10 25 0 6 5 3 10 -5 5 -8 10 -19 10 -25z m-33 -7 c-3 -7 -5 -2 -5 12
0 14 2 19 5 13 2 -7 2 -19 0 -25z m33 -40 c0 -25 -3 -29 -10 -18 -13 20 -13
50 0 50 6 0 10 -15 10 -32z m-1945 -18 c3 -5 -1 -10 -9 -10 -9 0 -16 5 -16 10
0 6 4 10 9 10 6 0 13 -4 16 -10z m1960 -210 l10 -105 30 105 30 105 85 -4 c47
-2 87 -5 89 -7 11 -10 66 -392 57 -401 -3 -3 -26 9 -52 26 -81 53 -149 74
-260 79 -80 3 -107 1 -132 -12 -44 -22 -51 -20 -47 14 4 27 2 29 -15 20 -10
-5 -21 -15 -24 -22 -3 -7 -3 -3 0 10 6 24 -5 29 -26 10 -12 -11 -12 -10 -1 5
7 9 20 17 28 17 8 0 30 12 49 27 l36 27 -26 13 c-15 8 -24 19 -20 25 4 6 -1 8
-15 3 -43 -13 -24 21 67 123 44 49 50 53 87 50 l40 -3 10 -105z m-1865 70
c-20 -13 -40 -13 -40 0 0 6 12 10 28 10 21 0 24 -2 12 -10z m2434 -235 c15
-47 15 -54 -5 -148 -29 -139 -41 -161 -34 -63 3 43 5 124 5 180 0 106 7 113
34 31z m-774 -69 c0 -3 -4 -8 -10 -11 -5 -3 -10 -1 -10 4 0 6 5 11 10 11 6 0
10 -2 10 -4z m47 -132 c21 -21 25 -32 20 -64 -8 -59 -68 -106 -113 -90 -60 22
-66 109 -12 155 38 32 72 32 105 -1z m-1134 -19 c-3 -9 -8 -14 -10 -11 -3 3
-2 9 2 15 9 16 15 13 8 -4z m969 -47 c-9 -12 -28 -95 -24 -110 1 -4 -3 -42 -9
-86 -8 -63 -7 -94 5 -161 19 -100 19 -129 1 -81 -7 19 -14 29 -14 23 -2 -30
-16 -10 -18 24 -1 21 -7 39 -12 41 -6 2 -11 21 -11 42 0 21 -4 40 -10 42 -19
6 -13 92 10 141 12 26 20 51 16 54 -3 4 -6 -1 -6 -10 0 -9 -4 -17 -10 -17 -15
0 -12 16 5 30 8 7 15 17 15 22 0 11 51 57 64 58 5 0 4 -6 -2 -12z m-325 -20
c-3 -8 -6 -5 -6 6 -1 11 2 17 5 13 3 -3 4 -12 1 -19z m23 -34 c0 -8 -5 -12
-10 -9 -6 4 -8 11 -5 16 9 14 15 11 15 -7z m-29 -74 c-4 -3 -13 -30 -19 -60
l-11 -55 5 68 c2 37 8 82 11 100 l7 32 7 -40 c4 -22 3 -42 0 -45z m29 30 c0
-5 -5 -10 -11 -10 -5 0 -7 5 -4 10 3 6 8 10 11 10 2 0 4 -4 4 -10z m-973 -42
c-3 -7 -5 -2 -5 12 0 14 2 19 5 13 2 -7 2 -19 0 -25z m-17 -38 c0 -5 -5 -10
-11 -10 -5 0 -7 5 -4 10 3 6 8 10 11 10 2 0 4 -4 4 -10z m1070 0 c0 -5 -9 -10
-20 -10 -11 0 -20 5 -20 10 0 6 9 10 20 10 11 0 20 -4 20 -10z m-83 -77 c-3
-10 -5 -4 -5 12 0 17 2 24 5 18 2 -7 2 -21 0 -30z m-30 -5 c-3 -7 -5 -2 -5 12
0 14 2 19 5 13 2 -7 2 -19 0 -25z m113 -18 c0 -5 -4 -10 -10 -10 -5 0 -10 5
-10 10 0 6 5 10 10 10 6 0 10 -4 10 -10z m561 -153 c-10 -9 -11 -8 -5 6 3 10
9 15 12 12 3 -3 0 -11 -7 -18z m-2256 -35 c-8 -8 -25 17 -25 38 0 9 6 6 16 -8
9 -13 13 -26 9 -30z m256 26 c0 -22 1 -22 9 -3 8 19 9 19 9 -2 1 -14 -5 -23
-14 -23 -8 0 -15 -4 -15 -8 0 -21 -61 -42 -122 -42 -68 1 -105 19 -105 54 0
16 7 18 56 13 66 -6 154 6 159 22 6 19 22 12 23 -11z m1228 -31 c1 -5 -3 -5
-9 -2 -5 3 -10 16 -9 28 0 21 1 21 9 2 5 -11 9 -24 9 -28z m428 -29 c-3 -8 -6
-5 -6 6 -1 11 2 17 5 13 3 -3 4 -12 1 -19z m299 -13 c0 -14 -4 -25 -8 -25 -10
0 -10 13 -2 34 9 23 12 20 10 -9z m-208 -114 c3 -8 -1 -12 -9 -9 -7 2 -15 10
-17 17 -3 8 1 12 9 9 7 -2 15 -10 17 -17z m-3641 -251 c12 -33 19 -60 17 -60
-11 0 -30 26 -28 38 1 7 0 8 -3 2 -2 -5 -9 -7 -15 -4 -6 4 -8 -1 -4 -13 5 -15
0 -23 -19 -31 -31 -14 -82 -84 -90 -125 -4 -18 -12 -38 -18 -45 -8 -11 -7 -16
6 -23 9 -6 17 -15 17 -21 0 -13 29 -48 40 -48 4 0 24 15 44 34 27 26 39 48 47
88 6 29 15 57 20 63 5 5 9 23 9 40 1 27 4 24 29 -30 25 -52 27 -62 15 -76 -17
-19 -19 -38 -2 -21 19 19 33 14 15 -6 -10 -10 -17 -23 -17 -28 0 -5 -7 -22
-15 -37 -8 -15 -17 -45 -21 -65 -4 -20 -10 -44 -15 -53 -12 -23 -19 -268 -8
-275 5 -3 9 3 9 12 0 16 1 16 14 -2 8 -10 10 -20 5 -22 -5 -2 -9 -12 -9 -23 0
-22 -11 -24 -28 -7 -9 9 -12 9 -12 0 0 -7 5 -12 11 -12 5 0 8 -4 5 -9 -3 -4 3
-16 14 -26 11 -10 20 -13 20 -7 0 6 -8 16 -17 21 -17 10 -17 10 0 11 23 0 57
-18 57 -30 0 -6 -7 -10 -15 -10 -8 0 -15 -4 -15 -10 0 -5 22 -8 50 -7 27 1 50
5 50 9 0 4 15 -1 33 -11 33 -18 137 -55 188 -65 14 -3 26 -11 26 -18 0 -7 3
-32 7 -54 5 -28 4 -44 -4 -49 -8 -5 -6 -13 6 -26 17 -19 17 -20 -2 -13 -10 4
-50 27 -88 52 -38 24 -98 59 -135 79 -83 44 -106 63 -89 75 8 5 4 6 -12 3 -19
-4 -35 3 -65 29 -105 90 -131 125 -130 173 0 32 -3 39 -15 35 -8 -3 -18 -10
-22 -16 -5 -7 -8 -7 -8 2 0 7 7 15 15 18 12 5 15 24 15 86 0 71 -2 81 -25 104
-21 21 -24 32 -19 60 7 37 24 47 24 14 0 -11 5 -20 11 -20 14 0 2 38 -22 68
l-18 23 -4 -48 c-3 -40 -4 -37 -5 20 -1 38 2 66 7 63 4 -3 6 7 3 22 -4 26 -4
26 11 7 15 -19 16 -18 6 18 -7 27 -7 42 0 51 6 7 8 16 5 19 -9 9 15 68 39 94
14 16 27 21 44 17 15 -4 23 -2 24 7 1 8 2 19 4 24 1 6 3 13 3 18 1 4 8 7 15 7
6 0 22 -27 34 -60z m-62 20 c-3 -5 -10 -10 -16 -10 -5 0 -9 5 -9 10 0 6 7 10
16 10 8 0 12 -4 9 -10z m1975 -580 c0 -16 -4 -30 -10 -30 -5 0 -10 -9 -10 -20
0 -23 -10 -26 -28 -8 -18 18 -15 28 8 28 16 0 20 7 20 30 0 17 5 30 10 30 6 0
10 -13 10 -30z m140 -120 c0 -5 -4 -10 -10 -10 -5 0 -10 5 -10 10 0 6 5 10 10
10 6 0 10 -4 10 -10z m-62 -61 c-2 -6 -7 -10 -11 -10 -4 1 -43 1 -87 1 -47 0
-80 4 -80 10 0 6 37 10 91 10 60 0 89 -4 87 -11z m-958 -19 c0 -5 -4 -10 -10
-10 -5 0 -10 5 -10 10 0 6 5 10 10 10 6 0 10 -4 10 -10z m840 -110 c0 -22 -4
-40 -10 -40 -5 0 -10 18 -10 40 0 22 5 40 10 40 6 0 10 -18 10 -40z m985 -90
c-3 -5 2 -10 11 -10 10 0 15 -3 11 -6 -10 -10 -39 5 -32 16 3 5 8 10 11 10 3
0 2 -4 -1 -10z m-28 -16 c-3 -3 -12 -4 -19 -1 -8 3 -5 6 6 6 11 1 17 -2 13 -5z
m999 -409 c1 -8 -1 -17 -5 -19 -4 -3 -8 7 -9 21 -2 27 10 25 14 -2z m-46 -20
c-7 -8 -18 -15 -24 -15 -6 0 -2 7 8 15 25 19 32 19 16 0z m1503 -45 c40 -44
35 -51 -30 -48 -65 3 -77 19 -43 56 28 29 42 28 73 -8z m-1503 6 c0 -2 -7 -6
-15 -10 -8 -3 -15 -1 -15 4 0 6 7 10 15 10 8 0 15 -2 15 -4z m103 -48 c18 -24
18 -27 0 -93 -18 -66 -19 -68 -51 -69 -23 -1 -40 6 -56 24 -34 37 -58 80 -46
80 6 0 8 5 5 10 -7 11 0 19 53 62 37 31 64 27 95 -14z m508 -171 c48 -29 59
-32 92 -24 58 14 83 4 85 -35 2 -36 -11 -59 -45 -76 -32 -18 -53 -15 -89 13
-18 14 -39 25 -46 25 -8 0 -32 -18 -53 -41 -51 -51 -91 -71 -127 -64 -33 8
-83 66 -66 76 6 4 23 29 38 56 29 53 91 102 131 103 14 0 50 -15 80 -33z m529
-32 c11 -13 8 -15 -14 -15 -25 0 -33 10 -19 23 10 11 19 8 33 -8z m578 -47
c18 -24 22 -54 9 -72 -16 -22 -43 -12 -62 24 -12 24 -12 29 3 43 19 20 36 22
50 5z m-345 -229 c3 -11 1 -33 -5 -49 -14 -42 -8 -51 58 -85 56 -29 59 -32 65
-74 6 -47 46 -91 82 -91 38 0 75 38 82 83 10 66 15 77 35 77 20 0 40 -44 36
-82 -9 -77 -71 -178 -110 -178 -48 0 -66 -12 -66 -40 0 -33 30 -60 97 -90 31
-13 43 -25 43 -39 0 -14 -6 -21 -19 -21 -11 0 -23 -5 -27 -11 -4 -8 -24 -9
-58 -4 -99 14 -126 11 -147 -16 -10 -13 -19 -36 -19 -51 0 -17 -5 -28 -14 -28
-8 0 -16 -5 -18 -11 -2 -6 -29 4 -65 25 -34 20 -66 36 -73 36 -22 0 -35 -24
-32 -59 5 -46 -20 -78 -68 -86 -30 -5 -40 -2 -63 21 -15 15 -28 34 -29 43 0 9
-2 21 -2 27 -1 7 -17 35 -35 64 -34 53 -34 53 -13 69 11 9 30 37 42 64 33 70
61 64 89 -17 17 -49 50 -106 62 -106 5 0 9 29 9 65 0 68 18 145 34 145 15 0
46 -32 46 -47 0 -7 5 -13 10 -13 6 0 10 -6 10 -13 0 -17 48 -67 63 -67 13 0
60 104 76 167 8 28 5 35 -25 64 -19 18 -34 38 -34 44 0 7 -17 20 -37 31 -21
10 -55 29 -75 41 l-37 23 15 52 c24 82 43 118 70 128 13 5 24 14 24 20 0 18
18 10 23 -11z m-425 -102 c12 -23 27 -49 33 -58 9 -12 8 -22 -6 -42 -9 -15
-21 -27 -26 -27 -15 0 -38 55 -29 70 6 9 2 24 -11 41 -19 27 -24 51 -13 62 12
12 31 -5 52 -46z m616 -33 c4 -12 1 -14 -14 -9 -13 4 -20 2 -18 -5 5 -21 -19
-22 -25 -1 -8 30 46 45 57 15z m-894 -24 c0 -14 9 -21 34 -26 19 -3 39 -3 45
0 17 11 23 -14 9 -44 -20 -46 -78 -52 -78 -8 0 11 -5 16 -11 13 -12 -8 -38 23
-39 46 0 16 19 39 32 39 4 0 8 -9 8 -20z m493 6 c3 -7 9 -35 13 -62 4 -27 13
-58 20 -69 12 -16 21 -105 11 -105 -2 0 -26 11 -53 24 l-50 24 -13 82 c-11 74
-11 84 5 101 20 22 59 25 67 5z m-763 -27 c0 -5 -7 -9 -15 -9 -15 0 -20 12 -9
23 8 8 24 -1 24 -14z m-29 -102 c-19 -19 -24 1 -10 35 l14 33 3 -29 c2 -16 -1
-33 -7 -39z m532 -399 c7 -49 6 -51 -17 -42 -11 4 -16 18 -16 45 0 55 26 52
33 -3z m-611 -334 c73 -26 142 -53 153 -61 20 -13 20 -14 -2 -19 -14 -4 -24
-17 -28 -34 -4 -19 -16 -32 -36 -41 -22 -8 -27 -14 -17 -20 9 -6 8 -10 -6 -15
-22 -9 -186 -170 -186 -183 0 -6 -14 -18 -30 -28 -17 -9 -29 -22 -27 -28 4
-12 -69 -73 -120 -100 -21 -11 -40 -23 -43 -26 -6 -7 -198 -116 -318 -181 -48
-26 -123 -60 -167 -76 -44 -17 -105 -41 -135 -55 -57 -26 -221 -87 -233 -87
-16 0 -5 20 11 21 10 0 12 3 5 6 -7 2 -13 9 -13 14 0 6 4 8 9 5 27 -17 182 99
197 146 3 10 9 18 14 18 4 0 20 21 36 47 15 26 40 58 55 70 15 13 31 33 34 43
4 11 13 20 21 20 8 0 14 3 14 8 0 13 58 72 72 72 7 0 18 10 23 22 6 12 19 26
30 32 11 6 26 19 33 29 7 9 18 17 24 17 12 0 148 138 148 150 0 4 9 10 20 13
13 3 18 11 14 20 -3 10 3 20 16 27 11 6 17 16 14 22 -5 7 -2 9 9 5 12 -4 14
-2 10 10 -5 13 -2 15 15 11 12 -4 20 -2 17 3 -8 11 19 38 75 74 25 16 61 43
80 62 19 18 45 33 57 33 12 0 81 -21 155 -46z m1171 -174 c-6 -21 -12 -24 -37
-14 -19 7 -20 27 -5 57 l12 21 17 -22 c10 -12 16 -31 13 -42z m213 35 c43 -33
72 -75 79 -114 4 -24 2 -32 -7 -28 -7 3 -37 14 -66 23 -78 26 -111 84 -74 127
20 23 29 22 68 -8z m-6521 -266 c-4 -5 0 -18 9 -28 21 -24 26 -86 6 -86 -9 0
-16 11 -18 25 -2 14 -8 38 -14 53 -9 23 -8 31 3 38 18 12 22 11 14 -2z"/>
<path d="M3310 6734 c0 -8 5 -12 10 -9 6 3 10 10 10 16 0 5 -4 9 -10 9 -5 0
-10 -7 -10 -16z"/>
<path d="M3341 6584 c0 -11 3 -14 6 -6 3 7 2 16 -1 19 -3 4 -6 -2 -5 -13z"/>
<path d="M3112 6160 c0 -14 2 -19 5 -12 2 6 2 18 0 25 -3 6 -5 1 -5 -13z"/>
<path d="M3084 6094 c-8 -20 -14 -40 -12 -45 2 -6 11 10 20 36 20 53 14 61 -8
9z"/>
<path d="M3116 6104 c-9 -22 -8 -23 14 -17 11 3 20 10 20 17 0 7 4 6 9 -2 7
-11 9 -11 14 2 5 12 0 16 -22 16 -17 0 -31 -6 -35 -16z"/>
<path d="M4892 4820 c0 -14 2 -19 5 -12 2 6 2 18 0 25 -3 6 -5 1 -5 -13z"/>
<path d="M4892 4580 c0 -14 2 -19 5 -12 2 6 2 18 0 25 -3 6 -5 1 -5 -13z"/>
<path d="M1356 4085 c-3 -8 -1 -15 4 -15 6 0 10 7 10 15 0 8 -2 15 -4 15 -2 0
-6 -7 -10 -15z"/>
<path d="M1268 4048 c-10 -10 -14 -18 -9 -18 10 0 36 29 30 34 -2 1 -12 -6
-21 -16z"/>
<path d="M1315 4020 c4 -6 11 -8 16 -5 14 9 11 15 -7 15 -8 0 -12 -5 -9 -10z"/>
<path d="M1240 3983 c0 -12 5 -25 10 -28 13 -8 13 15 0 35 -8 12 -10 11 -10
-7z"/>
<path d="M1230 3924 c0 -8 5 -12 10 -9 6 3 10 10 10 16 0 5 -4 9 -10 9 -5 0
-10 -7 -10 -16z"/>
<path d="M1435 3880 c3 -5 11 -10 16 -10 6 0 7 5 4 10 -3 6 -11 10 -16 10 -6
0 -7 -4 -4 -10z"/>
<path d="M1363 3425 c-3 -9 -3 -18 -1 -21 3 -3 8 4 11 16 6 23 -1 27 -10 5z"/>
<path d="M3218 5583 c7 -3 16 -2 19 1 4 3 -2 6 -13 5 -11 0 -14 -3 -6 -6z"/>
<path d="M3340 5545 c7 -9 15 -13 17 -11 7 7 -7 26 -19 26 -6 0 -6 -6 2 -15z"/>
<path d="M2550 5520 c-8 -5 -10 -10 -5 -10 6 0 17 5 25 10 8 5 11 10 5 10 -5
0 -17 -5 -25 -10z"/>
<path d="M3921 4934 c0 -11 3 -14 6 -6 3 7 2 16 -1 19 -3 4 -6 -2 -5 -13z"/>
<path d="M3631 4704 c0 -11 3 -14 6 -6 3 7 2 16 -1 19 -3 4 -6 -2 -5 -13z"/>
<path d="M4022 4700 c0 -14 2 -19 5 -12 2 6 2 18 0 25 -3 6 -5 1 -5 -13z"/>
<path d="M5732 4540 c0 -14 2 -19 5 -12 2 6 2 18 0 25 -3 6 -5 1 -5 -13z"/>
<path d="M5722 4460 c0 -14 2 -19 5 -12 2 6 2 18 0 25 -3 6 -5 1 -5 -13z"/>
<path d="M4720 4144 c0 -21 7 -46 17 -56 27 -30 27 -96 -2 -211 -9 -34 12 -37
43 -4 41 44 79 168 63 209 -5 14 -29 33 -60 47 -27 13 -48 28 -45 32 2 4 0 10
-6 14 -6 4 -10 -8 -10 -31z"/>
<path d="M3975 4130 c-4 -6 7 -10 27 -9 27 0 30 2 13 9 -27 12 -33 12 -40 0z"/>
<path d="M5703 3980 c0 -36 2 -50 4 -32 2 17 2 47 0 65 -2 17 -4 3 -4 -33z"/>
<path d="M4060 3920 c0 -22 5 -40 10 -40 6 0 10 11 10 24 0 13 7 26 15 30 24
9 17 26 -10 26 -22 0 -25 -4 -25 -40z"/>
<path d="M1980 3810 c0 -5 5 -10 10 -10 6 0 10 5 10 10 0 6 -4 10 -10 10 -5 0
-10 -4 -10 -10z"/>
<path d="M830 3574 c0 -8 5 -12 10 -9 6 4 8 11 5 16 -9 14 -15 11 -15 -7z"/>
<path d="M820 3530 c0 -5 5 -10 11 -10 5 0 7 5 4 10 -3 6 -8 10 -11 10 -2 0
-4 -4 -4 -10z"/>
<path d="M5700 3442 c0 -61 -30 -167 -75 -260 -37 -79 -40 -86 -26 -78 12 8
57 103 82 172 20 57 39 214 25 214 -3 0 -6 -21 -6 -48z"/>
<path d="M921 3354 c0 -11 3 -14 6 -6 3 7 2 16 -1 19 -3 4 -6 -2 -5 -13z"/>
<path d="M5556 3060 c-9 -17 -13 -30 -8 -30 9 0 35 50 29 56 -2 2 -11 -10 -21
-26z"/>
<path d="M5360 3064 c0 -8 5 -12 10 -9 6 3 10 10 10 16 0 5 -4 9 -10 9 -5 0
-10 -7 -10 -16z"/>
<path d="M5308 2828 c-13 -12 -32 -48 -24 -48 1 0 15 14 29 30 27 30 24 41 -5
18z"/>
<path d="M5270 2749 c0 -5 5 -7 10 -4 6 3 10 8 10 11 0 2 -4 4 -10 4 -5 0 -10
-5 -10 -11z"/>
<path d="M498 2433 c12 -2 32 -2 45 0 12 2 2 4 -23 4 -25 0 -35 -2 -22 -4z"/>
<path d="M498 2363 c12 -2 32 -2 45 0 12 2 2 4 -23 4 -25 0 -35 -2 -22 -4z"/>
<path d="M98 2273 c12 -2 32 -2 45 0 12 2 2 4 -23 4 -25 0 -35 -2 -22 -4z"/>
<path d="M785 1950 c3 -5 8 -10 11 -10 2 0 4 5 4 10 0 6 -5 10 -11 10 -5 0 -7
-4 -4 -10z"/>
<path d="M6686 485 c-9 -26 -7 -32 5 -12 6 10 9 21 6 23 -2 3 -7 -2 -11 -11z"/>
</g>
</svg>
