<?xml version="1.0" standalone="no"?>
<!DOCTYPE svg PUBLIC "-//W3C//DTD SVG 20010904//EN"
 "http://www.w3.org/TR/2001/REC-SVG-20010904/DTD/svg10.dtd">
<svg version="1.0" xmlns="http://www.w3.org/2000/svg"
 width="700.000000pt" height="700.000000pt" viewBox="0 0 700.000000 700.000000"
 preserveAspectRatio="xMidYMid meet">
<metadata>
Created by potrace 1.14, written by Peter Selinger 2001-2017
</metadata>
<g transform="translate(0.000000,700.000000) scale(0.100000,-0.100000)"
fill="#000000" stroke="none">
<path d="M3297 6995 c-1 -1 -45 -5 -97 -9 -52 -3 -104 -8 -115 -10 -11 -2 -47
-7 -80 -11 -61 -7 -66 -8 -150 -25 -122 -25 -147 -30 -226 -50 -283 -72 -612
-205 -849 -343 -47 -28 -94 -55 -105 -61 -53 -29 -179 -116 -284 -194 -193
-146 -362 -304 -555 -522 -162 -182 -376 -514 -500 -775 -155 -324 -270 -722
-312 -1080 -24 -213 -24 -682 0 -825 3 -14 7 -45 10 -70 9 -80 17 -134 26
-170 5 -19 12 -50 15 -68 22 -130 113 -428 183 -604 43 -105 137 -298 189
-386 24 -41 43 -75 43 -77 0 -2 30 -50 67 -107 349 -542 847 -981 1425 -1261
314 -152 692 -267 1027 -313 25 -3 57 -7 70 -10 159 -24 690 -24 842 1 13 2
47 7 74 10 71 10 87 13 115 18 14 3 43 8 65 12 22 4 67 14 100 22 33 8 67 16
75 18 100 20 358 107 513 172 122 51 339 160 395 198 20 14 40 25 43 25 13 0
263 172 354 243 159 124 386 340 490 467 21 25 41 47 44 50 17 12 180 233 238
323 266 408 438 846 522 1327 11 63 22 140 26 170 3 30 8 71 11 90 9 54 11
557 3 625 -4 33 -10 88 -14 122 -3 34 -8 72 -10 84 -3 13 -7 41 -10 64 -7 53
-63 308 -80 365 -72 242 -138 416 -227 598 -268 547 -652 994 -1164 1355 -182
128 -448 271 -675 362 -230 93 -560 186 -749 210 -19 3 -45 7 -57 9 -12 3 -48
7 -80 11 -32 3 -80 8 -108 12 -46 5 -512 12 -518 8z"/>
</g>
</svg>
